%TF.GenerationSoftware,KiCad,Pcbnew,(5.1.9)-1*%
%TF.CreationDate,2021-01-29T17:06:41+01:00*%
%TF.ProjectId,ProMini_MouseJiggler,50726f4d-696e-4695-9f4d-6f7573654a69,rev?*%
%TF.SameCoordinates,Original*%
%TF.FileFunction,Soldermask,Top*%
%TF.FilePolarity,Negative*%
%FSLAX46Y46*%
G04 Gerber Fmt 4.6, Leading zero omitted, Abs format (unit mm)*
G04 Created by KiCad (PCBNEW (5.1.9)-1) date 2021-01-29 17:06:41*
%MOMM*%
%LPD*%
G01*
G04 APERTURE LIST*
%ADD10R,1.300000X1.550000*%
%ADD11C,2.000000*%
%ADD12R,1.000000X1.500000*%
G04 APERTURE END LIST*
D10*
%TO.C,SW1*%
X145250000Y-91525000D03*
X140750000Y-91525000D03*
X140750000Y-99475000D03*
X145250000Y-99475000D03*
%TD*%
D11*
%TO.C,U1*%
X120300000Y-87880000D03*
X122840000Y-87880000D03*
X125380000Y-87880000D03*
X127920000Y-87880000D03*
X130460000Y-87880000D03*
X133000000Y-87880000D03*
X135540000Y-87880000D03*
X138080000Y-87880000D03*
X140620000Y-87880000D03*
X143160000Y-87880000D03*
X145700000Y-87880000D03*
X148240000Y-87880000D03*
X148240000Y-103120000D03*
X145700000Y-103120000D03*
X143160000Y-103120000D03*
X140620000Y-103120000D03*
X138080000Y-103120000D03*
X135540000Y-103120000D03*
X133000000Y-103120000D03*
X130460000Y-103120000D03*
X127920000Y-103120000D03*
X125380000Y-103120000D03*
X122840000Y-103120000D03*
X120300000Y-103120000D03*
%TD*%
%TO.C,C1*%
G36*
G01*
X136525000Y-95950000D02*
X137475000Y-95950000D01*
G75*
G02*
X137725000Y-96200000I0J-250000D01*
G01*
X137725000Y-96875000D01*
G75*
G02*
X137475000Y-97125000I-250000J0D01*
G01*
X136525000Y-97125000D01*
G75*
G02*
X136275000Y-96875000I0J250000D01*
G01*
X136275000Y-96200000D01*
G75*
G02*
X136525000Y-95950000I250000J0D01*
G01*
G37*
G36*
G01*
X136525000Y-93875000D02*
X137475000Y-93875000D01*
G75*
G02*
X137725000Y-94125000I0J-250000D01*
G01*
X137725000Y-94800000D01*
G75*
G02*
X137475000Y-95050000I-250000J0D01*
G01*
X136525000Y-95050000D01*
G75*
G02*
X136275000Y-94800000I0J250000D01*
G01*
X136275000Y-94125000D01*
G75*
G02*
X136525000Y-93875000I250000J0D01*
G01*
G37*
%TD*%
D12*
%TO.C,D1*%
X131400000Y-97950000D03*
X134600000Y-97950000D03*
X131400000Y-93050000D03*
X134600000Y-93050000D03*
%TD*%
M02*
