M48
; DRILL file {KiCad (5.1.9)-1} date 01/29/21 17:06:43
; FORMAT={-:-/ absolute / inch / decimal}
; #@! TF.CreationDate,2021-01-29T17:06:43+01:00
; #@! TF.GenerationSoftware,Kicad,Pcbnew,(5.1.9)-1
FMAT,2
INCH
T1C0.0433
%
G90
G05
T1
X4.7362Y-3.4598
X4.7362Y-4.0598
X4.8362Y-3.4598
X4.8362Y-4.0598
X4.9362Y-3.4598
X4.9362Y-4.0598
X5.0362Y-3.4598
X5.0362Y-4.0598
X5.1362Y-3.4598
X5.1362Y-4.0598
X5.2362Y-3.4598
X5.2362Y-4.0598
X5.3362Y-3.4598
X5.3362Y-4.0598
X5.4362Y-3.4598
X5.4362Y-4.0598
X5.5362Y-3.4598
X5.5362Y-4.0598
X5.6362Y-3.4598
X5.6362Y-4.0598
X5.7362Y-3.4598
X5.7362Y-4.0598
X5.8362Y-3.4598
X5.8362Y-4.0598
T0
M30
