%TF.GenerationSoftware,KiCad,Pcbnew,(5.1.9)-1*%
%TF.CreationDate,2021-01-29T17:06:41+01:00*%
%TF.ProjectId,ProMini_MouseJiggler,50726f4d-696e-4695-9f4d-6f7573654a69,rev?*%
%TF.SameCoordinates,Original*%
%TF.FileFunction,Legend,Bot*%
%TF.FilePolarity,Positive*%
%FSLAX46Y46*%
G04 Gerber Fmt 4.6, Leading zero omitted, Abs format (unit mm)*
G04 Created by KiCad (PCBNEW (5.1.9)-1) date 2021-01-29 17:06:41*
%MOMM*%
%LPD*%
G01*
G04 APERTURE LIST*
%ADD10C,0.300000*%
%ADD11C,0.200000*%
G04 APERTURE END LIST*
D10*
X144452380Y-93104761D02*
X144452380Y-91104761D01*
X143785714Y-92533333D01*
X143119047Y-91104761D01*
X143119047Y-93104761D01*
X141880952Y-93104761D02*
X142071428Y-93009523D01*
X142166666Y-92914285D01*
X142261904Y-92723809D01*
X142261904Y-92152380D01*
X142166666Y-91961904D01*
X142071428Y-91866666D01*
X141880952Y-91771428D01*
X141595238Y-91771428D01*
X141404761Y-91866666D01*
X141309523Y-91961904D01*
X141214285Y-92152380D01*
X141214285Y-92723809D01*
X141309523Y-92914285D01*
X141404761Y-93009523D01*
X141595238Y-93104761D01*
X141880952Y-93104761D01*
X139500000Y-91771428D02*
X139500000Y-93104761D01*
X140357142Y-91771428D02*
X140357142Y-92819047D01*
X140261904Y-93009523D01*
X140071428Y-93104761D01*
X139785714Y-93104761D01*
X139595238Y-93009523D01*
X139500000Y-92914285D01*
X138642857Y-93009523D02*
X138452380Y-93104761D01*
X138071428Y-93104761D01*
X137880952Y-93009523D01*
X137785714Y-92819047D01*
X137785714Y-92723809D01*
X137880952Y-92533333D01*
X138071428Y-92438095D01*
X138357142Y-92438095D01*
X138547619Y-92342857D01*
X138642857Y-92152380D01*
X138642857Y-92057142D01*
X138547619Y-91866666D01*
X138357142Y-91771428D01*
X138071428Y-91771428D01*
X137880952Y-91866666D01*
X136166666Y-93009523D02*
X136357142Y-93104761D01*
X136738095Y-93104761D01*
X136928571Y-93009523D01*
X137023809Y-92819047D01*
X137023809Y-92057142D01*
X136928571Y-91866666D01*
X136738095Y-91771428D01*
X136357142Y-91771428D01*
X136166666Y-91866666D01*
X136071428Y-92057142D01*
X136071428Y-92247619D01*
X137023809Y-92438095D01*
X133119047Y-91104761D02*
X133119047Y-92533333D01*
X133214285Y-92819047D01*
X133404761Y-93009523D01*
X133690476Y-93104761D01*
X133880952Y-93104761D01*
X132166666Y-93104761D02*
X132166666Y-91771428D01*
X132166666Y-91104761D02*
X132261904Y-91200000D01*
X132166666Y-91295238D01*
X132071428Y-91200000D01*
X132166666Y-91104761D01*
X132166666Y-91295238D01*
X130357142Y-91771428D02*
X130357142Y-93390476D01*
X130452380Y-93580952D01*
X130547619Y-93676190D01*
X130738095Y-93771428D01*
X131023809Y-93771428D01*
X131214285Y-93676190D01*
X130357142Y-93009523D02*
X130547619Y-93104761D01*
X130928571Y-93104761D01*
X131119047Y-93009523D01*
X131214285Y-92914285D01*
X131309523Y-92723809D01*
X131309523Y-92152380D01*
X131214285Y-91961904D01*
X131119047Y-91866666D01*
X130928571Y-91771428D01*
X130547619Y-91771428D01*
X130357142Y-91866666D01*
X128547619Y-91771428D02*
X128547619Y-93390476D01*
X128642857Y-93580952D01*
X128738095Y-93676190D01*
X128928571Y-93771428D01*
X129214285Y-93771428D01*
X129404761Y-93676190D01*
X128547619Y-93009523D02*
X128738095Y-93104761D01*
X129119047Y-93104761D01*
X129309523Y-93009523D01*
X129404761Y-92914285D01*
X129500000Y-92723809D01*
X129500000Y-92152380D01*
X129404761Y-91961904D01*
X129309523Y-91866666D01*
X129119047Y-91771428D01*
X128738095Y-91771428D01*
X128547619Y-91866666D01*
X127309523Y-93104761D02*
X127500000Y-93009523D01*
X127595238Y-92819047D01*
X127595238Y-91104761D01*
X125785714Y-93009523D02*
X125976190Y-93104761D01*
X126357142Y-93104761D01*
X126547619Y-93009523D01*
X126642857Y-92819047D01*
X126642857Y-92057142D01*
X126547619Y-91866666D01*
X126357142Y-91771428D01*
X125976190Y-91771428D01*
X125785714Y-91866666D01*
X125690476Y-92057142D01*
X125690476Y-92247619D01*
X126642857Y-92438095D01*
X124833333Y-93104761D02*
X124833333Y-91771428D01*
X124833333Y-92152380D02*
X124738095Y-91961904D01*
X124642857Y-91866666D01*
X124452380Y-91771428D01*
X124261904Y-91771428D01*
X140309523Y-98752380D02*
X140404761Y-98657142D01*
X140595238Y-98561904D01*
X140785714Y-98561904D01*
X140976190Y-98657142D01*
X141071428Y-98752380D01*
X141166666Y-98942857D01*
X141166666Y-99133333D01*
X141071428Y-99323809D01*
X140976190Y-99419047D01*
X140785714Y-99514285D01*
X140595238Y-99514285D01*
X140404761Y-99419047D01*
X140309523Y-99323809D01*
X140309523Y-98561904D02*
X140309523Y-99323809D01*
X140214285Y-99419047D01*
X140119047Y-99419047D01*
X139928571Y-99323809D01*
X139833333Y-99133333D01*
X139833333Y-98657142D01*
X140023809Y-98371428D01*
X140309523Y-98180952D01*
X140690476Y-98085714D01*
X141071428Y-98180952D01*
X141357142Y-98371428D01*
X141547619Y-98657142D01*
X141642857Y-99038095D01*
X141547619Y-99419047D01*
X141357142Y-99704761D01*
X141071428Y-99895238D01*
X140690476Y-99990476D01*
X140309523Y-99895238D01*
X140023809Y-99704761D01*
X139166666Y-98371428D02*
X138119047Y-98371428D01*
X139166666Y-99704761D01*
X138119047Y-99704761D01*
X136595238Y-99609523D02*
X136785714Y-99704761D01*
X137166666Y-99704761D01*
X137357142Y-99609523D01*
X137452380Y-99419047D01*
X137452380Y-98657142D01*
X137357142Y-98466666D01*
X137166666Y-98371428D01*
X136785714Y-98371428D01*
X136595238Y-98466666D01*
X136500000Y-98657142D01*
X136500000Y-98847619D01*
X137452380Y-99038095D01*
X135642857Y-99704761D02*
X135642857Y-98371428D01*
X135642857Y-98752380D02*
X135547619Y-98561904D01*
X135452380Y-98466666D01*
X135261904Y-98371428D01*
X135071428Y-98371428D01*
X134119047Y-99704761D02*
X134309523Y-99609523D01*
X134404761Y-99514285D01*
X134500000Y-99323809D01*
X134500000Y-98752380D01*
X134404761Y-98561904D01*
X134309523Y-98466666D01*
X134119047Y-98371428D01*
X133833333Y-98371428D01*
X133642857Y-98466666D01*
X133547619Y-98561904D01*
X133452380Y-98752380D01*
X133452380Y-99323809D01*
X133547619Y-99514285D01*
X133642857Y-99609523D01*
X133833333Y-99704761D01*
X134119047Y-99704761D01*
X132880952Y-98371428D02*
X132119047Y-98371428D01*
X132595238Y-99704761D02*
X132595238Y-97990476D01*
X132500000Y-97800000D01*
X132309523Y-97704761D01*
X132119047Y-97704761D01*
X131166666Y-99704761D02*
X131357142Y-99609523D01*
X131452380Y-99419047D01*
X131452380Y-97704761D01*
X130119047Y-99704761D02*
X130309523Y-99609523D01*
X130404761Y-99514285D01*
X130500000Y-99323809D01*
X130500000Y-98752380D01*
X130404761Y-98561904D01*
X130309523Y-98466666D01*
X130119047Y-98371428D01*
X129833333Y-98371428D01*
X129642857Y-98466666D01*
X129547619Y-98561904D01*
X129452380Y-98752380D01*
X129452380Y-99323809D01*
X129547619Y-99514285D01*
X129642857Y-99609523D01*
X129833333Y-99704761D01*
X130119047Y-99704761D01*
X128785714Y-98371428D02*
X128404761Y-99704761D01*
X128023809Y-98752380D01*
X127642857Y-99704761D01*
X127261904Y-98371428D01*
D11*
X147452380Y-90880952D02*
X148166666Y-90880952D01*
X148309523Y-90833333D01*
X148404761Y-90738095D01*
X148452380Y-90595238D01*
X148452380Y-90500000D01*
X148452380Y-91833333D02*
X148452380Y-91357142D01*
X147452380Y-91357142D01*
X148357142Y-92738095D02*
X148404761Y-92690476D01*
X148452380Y-92547619D01*
X148452380Y-92452380D01*
X148404761Y-92309523D01*
X148309523Y-92214285D01*
X148214285Y-92166666D01*
X148023809Y-92119047D01*
X147880952Y-92119047D01*
X147690476Y-92166666D01*
X147595238Y-92214285D01*
X147500000Y-92309523D01*
X147452380Y-92452380D01*
X147452380Y-92547619D01*
X147500000Y-92690476D01*
X147547619Y-92738095D01*
X147452380Y-93452380D02*
X148166666Y-93452380D01*
X148309523Y-93404761D01*
X148404761Y-93309523D01*
X148452380Y-93166666D01*
X148452380Y-93071428D01*
X148452380Y-94404761D02*
X148452380Y-93928571D01*
X147452380Y-93928571D01*
X148357142Y-95309523D02*
X148404761Y-95261904D01*
X148452380Y-95119047D01*
X148452380Y-95023809D01*
X148404761Y-94880952D01*
X148309523Y-94785714D01*
X148214285Y-94738095D01*
X148023809Y-94690476D01*
X147880952Y-94690476D01*
X147690476Y-94738095D01*
X147595238Y-94785714D01*
X147500000Y-94880952D01*
X147452380Y-95023809D01*
X147452380Y-95119047D01*
X147500000Y-95261904D01*
X147547619Y-95309523D01*
X147452380Y-96023809D02*
X148166666Y-96023809D01*
X148309523Y-95976190D01*
X148404761Y-95880952D01*
X148452380Y-95738095D01*
X148452380Y-95642857D01*
X148452380Y-96976190D02*
X148452380Y-96500000D01*
X147452380Y-96500000D01*
X148357142Y-97880952D02*
X148404761Y-97833333D01*
X148452380Y-97690476D01*
X148452380Y-97595238D01*
X148404761Y-97452380D01*
X148309523Y-97357142D01*
X148214285Y-97309523D01*
X148023809Y-97261904D01*
X147880952Y-97261904D01*
X147690476Y-97309523D01*
X147595238Y-97357142D01*
X147500000Y-97452380D01*
X147452380Y-97595238D01*
X147452380Y-97690476D01*
X147500000Y-97833333D01*
X147547619Y-97880952D01*
X147452380Y-98595238D02*
X148166666Y-98595238D01*
X148309523Y-98547619D01*
X148404761Y-98452380D01*
X148452380Y-98309523D01*
X148452380Y-98214285D01*
X148452380Y-99547619D02*
X148452380Y-99071428D01*
X147452380Y-99071428D01*
X148357142Y-100452380D02*
X148404761Y-100404761D01*
X148452380Y-100261904D01*
X148452380Y-100166666D01*
X148404761Y-100023809D01*
X148309523Y-99928571D01*
X148214285Y-99880952D01*
X148023809Y-99833333D01*
X147880952Y-99833333D01*
X147690476Y-99880952D01*
X147595238Y-99928571D01*
X147500000Y-100023809D01*
X147452380Y-100166666D01*
X147452380Y-100261904D01*
X147500000Y-100404761D01*
X147547619Y-100452380D01*
M02*
