%TF.GenerationSoftware,KiCad,Pcbnew,(5.1.9)-1*%
%TF.CreationDate,2021-01-29T17:06:41+01:00*%
%TF.ProjectId,ProMini_MouseJiggler,50726f4d-696e-4695-9f4d-6f7573654a69,rev?*%
%TF.SameCoordinates,Original*%
%TF.FileFunction,Copper,L1,Top*%
%TF.FilePolarity,Positive*%
%FSLAX46Y46*%
G04 Gerber Fmt 4.6, Leading zero omitted, Abs format (unit mm)*
G04 Created by KiCad (PCBNEW (5.1.9)-1) date 2021-01-29 17:06:41*
%MOMM*%
%LPD*%
G01*
G04 APERTURE LIST*
%TA.AperFunction,SMDPad,CuDef*%
%ADD10R,1.300000X1.550000*%
%TD*%
%TA.AperFunction,ComponentPad*%
%ADD11C,2.000000*%
%TD*%
%TA.AperFunction,SMDPad,CuDef*%
%ADD12R,1.000000X1.500000*%
%TD*%
%TA.AperFunction,Conductor*%
%ADD13C,0.508000*%
%TD*%
%TA.AperFunction,Conductor*%
%ADD14C,0.254000*%
%TD*%
%TA.AperFunction,Conductor*%
%ADD15C,0.100000*%
%TD*%
G04 APERTURE END LIST*
D10*
%TO.P,SW1,2*%
%TO.N,GND*%
X145250000Y-91525000D03*
%TO.P,SW1,1*%
%TO.N,SW*%
X140750000Y-91525000D03*
X140750000Y-99475000D03*
%TO.P,SW1,2*%
%TO.N,GND*%
X145250000Y-99475000D03*
%TD*%
D11*
%TO.P,U1,24*%
%TO.N,Net-(U1-Pad24)*%
X120300000Y-87880000D03*
%TO.P,U1,23*%
%TO.N,GND*%
X122840000Y-87880000D03*
%TO.P,U1,22*%
%TO.N,Net-(U1-Pad22)*%
X125380000Y-87880000D03*
%TO.P,U1,21*%
%TO.N,+5V*%
X127920000Y-87880000D03*
%TO.P,U1,20*%
%TO.N,Net-(U1-Pad20)*%
X130460000Y-87880000D03*
%TO.P,U1,19*%
%TO.N,Net-(U1-Pad19)*%
X133000000Y-87880000D03*
%TO.P,U1,18*%
%TO.N,Net-(U1-Pad18)*%
X135540000Y-87880000D03*
%TO.P,U1,17*%
%TO.N,Net-(U1-Pad17)*%
X138080000Y-87880000D03*
%TO.P,U1,16*%
%TO.N,Net-(U1-Pad16)*%
X140620000Y-87880000D03*
%TO.P,U1,15*%
%TO.N,Net-(U1-Pad15)*%
X143160000Y-87880000D03*
%TO.P,U1,14*%
%TO.N,Net-(U1-Pad14)*%
X145700000Y-87880000D03*
%TO.P,U1,13*%
%TO.N,Net-(U1-Pad13)*%
X148240000Y-87880000D03*
%TO.P,U1,12*%
%TO.N,Net-(U1-Pad12)*%
X148240000Y-103120000D03*
%TO.P,U1,11*%
%TO.N,Net-(U1-Pad11)*%
X145700000Y-103120000D03*
%TO.P,U1,10*%
%TO.N,Net-(U1-Pad10)*%
X143160000Y-103120000D03*
%TO.P,U1,9*%
%TO.N,SW*%
X140620000Y-103120000D03*
%TO.P,U1,8*%
%TO.N,Net-(U1-Pad8)*%
X138080000Y-103120000D03*
%TO.P,U1,7*%
%TO.N,LED*%
X135540000Y-103120000D03*
%TO.P,U1,6*%
%TO.N,Net-(U1-Pad6)*%
X133000000Y-103120000D03*
%TO.P,U1,5*%
%TO.N,Net-(U1-Pad5)*%
X130460000Y-103120000D03*
%TO.P,U1,4*%
%TO.N,GND*%
X127920000Y-103120000D03*
%TO.P,U1,3*%
X125380000Y-103120000D03*
%TO.P,U1,2*%
%TO.N,Net-(U1-Pad2)*%
X122840000Y-103120000D03*
%TO.P,U1,1*%
%TO.N,Net-(U1-Pad1)*%
X120300000Y-103120000D03*
%TD*%
%TO.P,C1,2*%
%TO.N,GND*%
%TA.AperFunction,SMDPad,CuDef*%
G36*
G01*
X136525000Y-95950000D02*
X137475000Y-95950000D01*
G75*
G02*
X137725000Y-96200000I0J-250000D01*
G01*
X137725000Y-96875000D01*
G75*
G02*
X137475000Y-97125000I-250000J0D01*
G01*
X136525000Y-97125000D01*
G75*
G02*
X136275000Y-96875000I0J250000D01*
G01*
X136275000Y-96200000D01*
G75*
G02*
X136525000Y-95950000I250000J0D01*
G01*
G37*
%TD.AperFunction*%
%TO.P,C1,1*%
%TO.N,+5V*%
%TA.AperFunction,SMDPad,CuDef*%
G36*
G01*
X136525000Y-93875000D02*
X137475000Y-93875000D01*
G75*
G02*
X137725000Y-94125000I0J-250000D01*
G01*
X137725000Y-94800000D01*
G75*
G02*
X137475000Y-95050000I-250000J0D01*
G01*
X136525000Y-95050000D01*
G75*
G02*
X136275000Y-94800000I0J250000D01*
G01*
X136275000Y-94125000D01*
G75*
G02*
X136525000Y-93875000I250000J0D01*
G01*
G37*
%TD.AperFunction*%
%TD*%
D12*
%TO.P,D1,1*%
%TO.N,GND*%
X131400000Y-97950000D03*
%TO.P,D1,2*%
%TO.N,LED*%
X134600000Y-97950000D03*
%TO.P,D1,4*%
%TO.N,Net-(D1-Pad4)*%
X131400000Y-93050000D03*
%TO.P,D1,3*%
%TO.N,+5V*%
X134600000Y-93050000D03*
%TD*%
D13*
%TO.N,LED*%
X134600000Y-97950000D02*
X134600000Y-100100000D01*
X135540000Y-101040000D02*
X135540000Y-103120000D01*
X134600000Y-100100000D02*
X135540000Y-101040000D01*
%TO.N,+5V*%
X137000000Y-94462500D02*
X137000000Y-93500000D01*
X136550000Y-93050000D02*
X134600000Y-93050000D01*
X137000000Y-93500000D02*
X136550000Y-93050000D01*
X127920000Y-87880000D02*
X127920000Y-89420000D01*
X127920000Y-89420000D02*
X129500000Y-91000000D01*
X129500000Y-91000000D02*
X134000000Y-91000000D01*
X134600000Y-91600000D02*
X134600000Y-93050000D01*
X134000000Y-91000000D02*
X134600000Y-91600000D01*
%TO.N,SW*%
X140620000Y-99605000D02*
X140750000Y-99475000D01*
X140620000Y-103120000D02*
X140620000Y-99605000D01*
X140750000Y-91525000D02*
X140750000Y-99475000D01*
%TD*%
D14*
%TO.N,GND*%
X118727832Y-87403088D02*
X118665000Y-87718967D01*
X118665000Y-88041033D01*
X118727832Y-88356912D01*
X118851082Y-88654463D01*
X119030013Y-88922252D01*
X119257748Y-89149987D01*
X119525537Y-89328918D01*
X119823088Y-89452168D01*
X120138967Y-89515000D01*
X120461033Y-89515000D01*
X120776912Y-89452168D01*
X121074463Y-89328918D01*
X121342252Y-89149987D01*
X121476826Y-89015413D01*
X121884192Y-89015413D01*
X121979956Y-89279814D01*
X122269571Y-89420704D01*
X122581108Y-89502384D01*
X122902595Y-89521718D01*
X123221675Y-89477961D01*
X123526088Y-89372795D01*
X123700044Y-89279814D01*
X123795808Y-89015413D01*
X122840000Y-88059605D01*
X121884192Y-89015413D01*
X121476826Y-89015413D01*
X121569987Y-88922252D01*
X121642720Y-88813400D01*
X121704587Y-88835808D01*
X122660395Y-87880000D01*
X122646253Y-87865858D01*
X122825858Y-87686253D01*
X122840000Y-87700395D01*
X122854143Y-87686253D01*
X123033748Y-87865858D01*
X123019605Y-87880000D01*
X123975413Y-88835808D01*
X124037280Y-88813400D01*
X124110013Y-88922252D01*
X124337748Y-89149987D01*
X124605537Y-89328918D01*
X124903088Y-89452168D01*
X125218967Y-89515000D01*
X125541033Y-89515000D01*
X125856912Y-89452168D01*
X126154463Y-89328918D01*
X126422252Y-89149987D01*
X126649987Y-88922252D01*
X126650000Y-88922233D01*
X126650013Y-88922252D01*
X126877748Y-89149987D01*
X127031001Y-89252387D01*
X127031001Y-89376331D01*
X127026700Y-89420000D01*
X127043864Y-89594274D01*
X127094698Y-89761852D01*
X127177248Y-89916291D01*
X127288342Y-90051659D01*
X127322259Y-90079494D01*
X128840501Y-91597736D01*
X128868341Y-91631659D01*
X129003709Y-91742753D01*
X129158149Y-91825303D01*
X129224058Y-91845296D01*
X129325724Y-91876136D01*
X129358924Y-91879406D01*
X129456333Y-91889000D01*
X129456339Y-91889000D01*
X129499999Y-91893300D01*
X129543659Y-91889000D01*
X130415836Y-91889000D01*
X130369463Y-91945506D01*
X130310498Y-92055820D01*
X130274188Y-92175518D01*
X130261928Y-92300000D01*
X130261928Y-93800000D01*
X130274188Y-93924482D01*
X130310498Y-94044180D01*
X130369463Y-94154494D01*
X130448815Y-94251185D01*
X130545506Y-94330537D01*
X130655820Y-94389502D01*
X130775518Y-94425812D01*
X130900000Y-94438072D01*
X131900000Y-94438072D01*
X132024482Y-94425812D01*
X132144180Y-94389502D01*
X132254494Y-94330537D01*
X132351185Y-94251185D01*
X132430537Y-94154494D01*
X132489502Y-94044180D01*
X132525812Y-93924482D01*
X132538072Y-93800000D01*
X132538072Y-92300000D01*
X132525812Y-92175518D01*
X132489502Y-92055820D01*
X132430537Y-91945506D01*
X132384164Y-91889000D01*
X133615836Y-91889000D01*
X133569463Y-91945506D01*
X133510498Y-92055820D01*
X133474188Y-92175518D01*
X133461928Y-92300000D01*
X133461928Y-93800000D01*
X133474188Y-93924482D01*
X133510498Y-94044180D01*
X133569463Y-94154494D01*
X133648815Y-94251185D01*
X133745506Y-94330537D01*
X133855820Y-94389502D01*
X133975518Y-94425812D01*
X134100000Y-94438072D01*
X135100000Y-94438072D01*
X135224482Y-94425812D01*
X135344180Y-94389502D01*
X135454494Y-94330537D01*
X135551185Y-94251185D01*
X135630537Y-94154494D01*
X135636928Y-94142537D01*
X135636928Y-94800000D01*
X135653992Y-94973254D01*
X135704528Y-95139850D01*
X135786595Y-95293386D01*
X135897038Y-95427962D01*
X135903594Y-95433342D01*
X135823815Y-95498815D01*
X135744463Y-95595506D01*
X135685498Y-95705820D01*
X135649188Y-95825518D01*
X135636928Y-95950000D01*
X135640000Y-96251750D01*
X135798750Y-96410500D01*
X136873000Y-96410500D01*
X136873000Y-96390500D01*
X137127000Y-96390500D01*
X137127000Y-96410500D01*
X138201250Y-96410500D01*
X138360000Y-96251750D01*
X138363072Y-95950000D01*
X138350812Y-95825518D01*
X138314502Y-95705820D01*
X138255537Y-95595506D01*
X138176185Y-95498815D01*
X138096406Y-95433342D01*
X138102962Y-95427962D01*
X138213405Y-95293386D01*
X138295472Y-95139850D01*
X138346008Y-94973254D01*
X138363072Y-94800000D01*
X138363072Y-94125000D01*
X138346008Y-93951746D01*
X138295472Y-93785150D01*
X138213405Y-93631614D01*
X138102962Y-93497038D01*
X137968386Y-93386595D01*
X137877338Y-93337929D01*
X137876136Y-93325726D01*
X137876136Y-93325724D01*
X137825302Y-93158147D01*
X137822548Y-93152995D01*
X137742753Y-93003709D01*
X137631659Y-92868341D01*
X137597736Y-92840501D01*
X137209499Y-92452264D01*
X137181659Y-92418341D01*
X137046291Y-92307247D01*
X136891851Y-92224697D01*
X136724274Y-92173864D01*
X136593667Y-92161000D01*
X136593660Y-92161000D01*
X136550000Y-92156700D01*
X136506340Y-92161000D01*
X135721408Y-92161000D01*
X135689502Y-92055820D01*
X135630537Y-91945506D01*
X135551185Y-91848815D01*
X135489000Y-91797781D01*
X135489000Y-91643659D01*
X135493300Y-91599999D01*
X135489000Y-91556334D01*
X135489000Y-91556333D01*
X135476136Y-91425726D01*
X135476136Y-91425724D01*
X135425302Y-91258147D01*
X135415201Y-91239250D01*
X135342753Y-91103709D01*
X135231659Y-90968341D01*
X135197742Y-90940506D01*
X134659498Y-90402263D01*
X134631659Y-90368341D01*
X134496291Y-90257247D01*
X134341851Y-90174697D01*
X134174274Y-90123864D01*
X134043667Y-90111000D01*
X134043660Y-90111000D01*
X134000000Y-90106700D01*
X133956340Y-90111000D01*
X129868235Y-90111000D01*
X128929264Y-89172029D01*
X128962252Y-89149987D01*
X129189987Y-88922252D01*
X129190000Y-88922233D01*
X129190013Y-88922252D01*
X129417748Y-89149987D01*
X129685537Y-89328918D01*
X129983088Y-89452168D01*
X130298967Y-89515000D01*
X130621033Y-89515000D01*
X130936912Y-89452168D01*
X131234463Y-89328918D01*
X131502252Y-89149987D01*
X131729987Y-88922252D01*
X131730000Y-88922233D01*
X131730013Y-88922252D01*
X131957748Y-89149987D01*
X132225537Y-89328918D01*
X132523088Y-89452168D01*
X132838967Y-89515000D01*
X133161033Y-89515000D01*
X133476912Y-89452168D01*
X133774463Y-89328918D01*
X134042252Y-89149987D01*
X134269987Y-88922252D01*
X134270000Y-88922233D01*
X134270013Y-88922252D01*
X134497748Y-89149987D01*
X134765537Y-89328918D01*
X135063088Y-89452168D01*
X135378967Y-89515000D01*
X135701033Y-89515000D01*
X136016912Y-89452168D01*
X136314463Y-89328918D01*
X136582252Y-89149987D01*
X136809987Y-88922252D01*
X136810000Y-88922233D01*
X136810013Y-88922252D01*
X137037748Y-89149987D01*
X137305537Y-89328918D01*
X137603088Y-89452168D01*
X137918967Y-89515000D01*
X138241033Y-89515000D01*
X138556912Y-89452168D01*
X138854463Y-89328918D01*
X139122252Y-89149987D01*
X139349987Y-88922252D01*
X139350000Y-88922233D01*
X139350013Y-88922252D01*
X139577748Y-89149987D01*
X139845537Y-89328918D01*
X140143088Y-89452168D01*
X140458967Y-89515000D01*
X140781033Y-89515000D01*
X141096912Y-89452168D01*
X141394463Y-89328918D01*
X141662252Y-89149987D01*
X141889987Y-88922252D01*
X141890000Y-88922233D01*
X141890013Y-88922252D01*
X142117748Y-89149987D01*
X142385537Y-89328918D01*
X142683088Y-89452168D01*
X142998967Y-89515000D01*
X143321033Y-89515000D01*
X143636912Y-89452168D01*
X143934463Y-89328918D01*
X144202252Y-89149987D01*
X144429987Y-88922252D01*
X144430000Y-88922233D01*
X144430013Y-88922252D01*
X144657748Y-89149987D01*
X144925537Y-89328918D01*
X145223088Y-89452168D01*
X145538967Y-89515000D01*
X145861033Y-89515000D01*
X146176912Y-89452168D01*
X146474463Y-89328918D01*
X146742252Y-89149987D01*
X146969987Y-88922252D01*
X146970000Y-88922233D01*
X146970013Y-88922252D01*
X147197748Y-89149987D01*
X147465537Y-89328918D01*
X147763088Y-89452168D01*
X148078967Y-89515000D01*
X148401033Y-89515000D01*
X148716912Y-89452168D01*
X148840000Y-89401183D01*
X148840001Y-101598817D01*
X148716912Y-101547832D01*
X148401033Y-101485000D01*
X148078967Y-101485000D01*
X147763088Y-101547832D01*
X147465537Y-101671082D01*
X147197748Y-101850013D01*
X146970013Y-102077748D01*
X146970000Y-102077767D01*
X146969987Y-102077748D01*
X146742252Y-101850013D01*
X146474463Y-101671082D01*
X146176912Y-101547832D01*
X145861033Y-101485000D01*
X145538967Y-101485000D01*
X145223088Y-101547832D01*
X144925537Y-101671082D01*
X144657748Y-101850013D01*
X144430013Y-102077748D01*
X144430000Y-102077767D01*
X144429987Y-102077748D01*
X144202252Y-101850013D01*
X143934463Y-101671082D01*
X143636912Y-101547832D01*
X143321033Y-101485000D01*
X142998967Y-101485000D01*
X142683088Y-101547832D01*
X142385537Y-101671082D01*
X142117748Y-101850013D01*
X141890013Y-102077748D01*
X141890000Y-102077767D01*
X141889987Y-102077748D01*
X141662252Y-101850013D01*
X141509000Y-101747613D01*
X141509000Y-100877337D01*
X141524482Y-100875812D01*
X141644180Y-100839502D01*
X141754494Y-100780537D01*
X141851185Y-100701185D01*
X141930537Y-100604494D01*
X141989502Y-100494180D01*
X142025812Y-100374482D01*
X142038072Y-100250000D01*
X143961928Y-100250000D01*
X143974188Y-100374482D01*
X144010498Y-100494180D01*
X144069463Y-100604494D01*
X144148815Y-100701185D01*
X144245506Y-100780537D01*
X144355820Y-100839502D01*
X144475518Y-100875812D01*
X144600000Y-100888072D01*
X144964250Y-100885000D01*
X145123000Y-100726250D01*
X145123000Y-99602000D01*
X145377000Y-99602000D01*
X145377000Y-100726250D01*
X145535750Y-100885000D01*
X145900000Y-100888072D01*
X146024482Y-100875812D01*
X146144180Y-100839502D01*
X146254494Y-100780537D01*
X146351185Y-100701185D01*
X146430537Y-100604494D01*
X146489502Y-100494180D01*
X146525812Y-100374482D01*
X146538072Y-100250000D01*
X146535000Y-99760750D01*
X146376250Y-99602000D01*
X145377000Y-99602000D01*
X145123000Y-99602000D01*
X144123750Y-99602000D01*
X143965000Y-99760750D01*
X143961928Y-100250000D01*
X142038072Y-100250000D01*
X142038072Y-98700000D01*
X143961928Y-98700000D01*
X143965000Y-99189250D01*
X144123750Y-99348000D01*
X145123000Y-99348000D01*
X145123000Y-98223750D01*
X145377000Y-98223750D01*
X145377000Y-99348000D01*
X146376250Y-99348000D01*
X146535000Y-99189250D01*
X146538072Y-98700000D01*
X146525812Y-98575518D01*
X146489502Y-98455820D01*
X146430537Y-98345506D01*
X146351185Y-98248815D01*
X146254494Y-98169463D01*
X146144180Y-98110498D01*
X146024482Y-98074188D01*
X145900000Y-98061928D01*
X145535750Y-98065000D01*
X145377000Y-98223750D01*
X145123000Y-98223750D01*
X144964250Y-98065000D01*
X144600000Y-98061928D01*
X144475518Y-98074188D01*
X144355820Y-98110498D01*
X144245506Y-98169463D01*
X144148815Y-98248815D01*
X144069463Y-98345506D01*
X144010498Y-98455820D01*
X143974188Y-98575518D01*
X143961928Y-98700000D01*
X142038072Y-98700000D01*
X142025812Y-98575518D01*
X141989502Y-98455820D01*
X141930537Y-98345506D01*
X141851185Y-98248815D01*
X141754494Y-98169463D01*
X141644180Y-98110498D01*
X141639000Y-98108927D01*
X141639000Y-92891073D01*
X141644180Y-92889502D01*
X141754494Y-92830537D01*
X141851185Y-92751185D01*
X141930537Y-92654494D01*
X141989502Y-92544180D01*
X142025812Y-92424482D01*
X142038072Y-92300000D01*
X143961928Y-92300000D01*
X143974188Y-92424482D01*
X144010498Y-92544180D01*
X144069463Y-92654494D01*
X144148815Y-92751185D01*
X144245506Y-92830537D01*
X144355820Y-92889502D01*
X144475518Y-92925812D01*
X144600000Y-92938072D01*
X144964250Y-92935000D01*
X145123000Y-92776250D01*
X145123000Y-91652000D01*
X145377000Y-91652000D01*
X145377000Y-92776250D01*
X145535750Y-92935000D01*
X145900000Y-92938072D01*
X146024482Y-92925812D01*
X146144180Y-92889502D01*
X146254494Y-92830537D01*
X146351185Y-92751185D01*
X146430537Y-92654494D01*
X146489502Y-92544180D01*
X146525812Y-92424482D01*
X146538072Y-92300000D01*
X146535000Y-91810750D01*
X146376250Y-91652000D01*
X145377000Y-91652000D01*
X145123000Y-91652000D01*
X144123750Y-91652000D01*
X143965000Y-91810750D01*
X143961928Y-92300000D01*
X142038072Y-92300000D01*
X142038072Y-90750000D01*
X143961928Y-90750000D01*
X143965000Y-91239250D01*
X144123750Y-91398000D01*
X145123000Y-91398000D01*
X145123000Y-90273750D01*
X145377000Y-90273750D01*
X145377000Y-91398000D01*
X146376250Y-91398000D01*
X146535000Y-91239250D01*
X146538072Y-90750000D01*
X146525812Y-90625518D01*
X146489502Y-90505820D01*
X146430537Y-90395506D01*
X146351185Y-90298815D01*
X146254494Y-90219463D01*
X146144180Y-90160498D01*
X146024482Y-90124188D01*
X145900000Y-90111928D01*
X145535750Y-90115000D01*
X145377000Y-90273750D01*
X145123000Y-90273750D01*
X144964250Y-90115000D01*
X144600000Y-90111928D01*
X144475518Y-90124188D01*
X144355820Y-90160498D01*
X144245506Y-90219463D01*
X144148815Y-90298815D01*
X144069463Y-90395506D01*
X144010498Y-90505820D01*
X143974188Y-90625518D01*
X143961928Y-90750000D01*
X142038072Y-90750000D01*
X142025812Y-90625518D01*
X141989502Y-90505820D01*
X141930537Y-90395506D01*
X141851185Y-90298815D01*
X141754494Y-90219463D01*
X141644180Y-90160498D01*
X141524482Y-90124188D01*
X141400000Y-90111928D01*
X140100000Y-90111928D01*
X139975518Y-90124188D01*
X139855820Y-90160498D01*
X139745506Y-90219463D01*
X139648815Y-90298815D01*
X139569463Y-90395506D01*
X139510498Y-90505820D01*
X139474188Y-90625518D01*
X139461928Y-90750000D01*
X139461928Y-92300000D01*
X139474188Y-92424482D01*
X139510498Y-92544180D01*
X139569463Y-92654494D01*
X139648815Y-92751185D01*
X139745506Y-92830537D01*
X139855820Y-92889502D01*
X139861000Y-92891073D01*
X139861001Y-98108926D01*
X139855820Y-98110498D01*
X139745506Y-98169463D01*
X139648815Y-98248815D01*
X139569463Y-98345506D01*
X139510498Y-98455820D01*
X139474188Y-98575518D01*
X139461928Y-98700000D01*
X139461928Y-100250000D01*
X139474188Y-100374482D01*
X139510498Y-100494180D01*
X139569463Y-100604494D01*
X139648815Y-100701185D01*
X139731001Y-100768633D01*
X139731000Y-101747613D01*
X139577748Y-101850013D01*
X139350013Y-102077748D01*
X139350000Y-102077767D01*
X139349987Y-102077748D01*
X139122252Y-101850013D01*
X138854463Y-101671082D01*
X138556912Y-101547832D01*
X138241033Y-101485000D01*
X137918967Y-101485000D01*
X137603088Y-101547832D01*
X137305537Y-101671082D01*
X137037748Y-101850013D01*
X136810013Y-102077748D01*
X136810000Y-102077767D01*
X136809987Y-102077748D01*
X136582252Y-101850013D01*
X136429000Y-101747613D01*
X136429000Y-101083660D01*
X136433300Y-101040000D01*
X136429000Y-100996340D01*
X136429000Y-100996333D01*
X136416136Y-100865726D01*
X136409168Y-100842753D01*
X136365302Y-100698147D01*
X136315243Y-100604494D01*
X136282753Y-100543709D01*
X136171659Y-100408341D01*
X136137743Y-100380507D01*
X135489000Y-99731765D01*
X135489000Y-99202219D01*
X135551185Y-99151185D01*
X135630537Y-99054494D01*
X135689502Y-98944180D01*
X135725812Y-98824482D01*
X135738072Y-98700000D01*
X135738072Y-97467537D01*
X135744463Y-97479494D01*
X135823815Y-97576185D01*
X135920506Y-97655537D01*
X136030820Y-97714502D01*
X136150518Y-97750812D01*
X136275000Y-97763072D01*
X136714250Y-97760000D01*
X136873000Y-97601250D01*
X136873000Y-96664500D01*
X137127000Y-96664500D01*
X137127000Y-97601250D01*
X137285750Y-97760000D01*
X137725000Y-97763072D01*
X137849482Y-97750812D01*
X137969180Y-97714502D01*
X138079494Y-97655537D01*
X138176185Y-97576185D01*
X138255537Y-97479494D01*
X138314502Y-97369180D01*
X138350812Y-97249482D01*
X138363072Y-97125000D01*
X138360000Y-96823250D01*
X138201250Y-96664500D01*
X137127000Y-96664500D01*
X136873000Y-96664500D01*
X135798750Y-96664500D01*
X135640000Y-96823250D01*
X135639601Y-96862463D01*
X135630537Y-96845506D01*
X135551185Y-96748815D01*
X135454494Y-96669463D01*
X135344180Y-96610498D01*
X135224482Y-96574188D01*
X135100000Y-96561928D01*
X134100000Y-96561928D01*
X133975518Y-96574188D01*
X133855820Y-96610498D01*
X133745506Y-96669463D01*
X133648815Y-96748815D01*
X133569463Y-96845506D01*
X133510498Y-96955820D01*
X133474188Y-97075518D01*
X133461928Y-97200000D01*
X133461928Y-98700000D01*
X133474188Y-98824482D01*
X133510498Y-98944180D01*
X133569463Y-99054494D01*
X133648815Y-99151185D01*
X133711001Y-99202219D01*
X133711001Y-100056330D01*
X133706700Y-100100000D01*
X133723864Y-100274274D01*
X133774698Y-100441852D01*
X133857248Y-100596291D01*
X133968342Y-100731659D01*
X134002259Y-100759494D01*
X134651000Y-101408236D01*
X134651000Y-101747613D01*
X134497748Y-101850013D01*
X134270013Y-102077748D01*
X134270000Y-102077767D01*
X134269987Y-102077748D01*
X134042252Y-101850013D01*
X133774463Y-101671082D01*
X133476912Y-101547832D01*
X133161033Y-101485000D01*
X132838967Y-101485000D01*
X132523088Y-101547832D01*
X132225537Y-101671082D01*
X131957748Y-101850013D01*
X131730013Y-102077748D01*
X131730000Y-102077767D01*
X131729987Y-102077748D01*
X131502252Y-101850013D01*
X131234463Y-101671082D01*
X130936912Y-101547832D01*
X130621033Y-101485000D01*
X130298967Y-101485000D01*
X129983088Y-101547832D01*
X129685537Y-101671082D01*
X129417748Y-101850013D01*
X129190013Y-102077748D01*
X129117280Y-102186600D01*
X129055413Y-102164192D01*
X128099605Y-103120000D01*
X128113748Y-103134143D01*
X127934143Y-103313748D01*
X127920000Y-103299605D01*
X127905858Y-103313748D01*
X127726253Y-103134143D01*
X127740395Y-103120000D01*
X126784587Y-102164192D01*
X126650000Y-102212938D01*
X126515413Y-102164192D01*
X125559605Y-103120000D01*
X125573748Y-103134143D01*
X125394143Y-103313748D01*
X125380000Y-103299605D01*
X125365858Y-103313748D01*
X125186253Y-103134143D01*
X125200395Y-103120000D01*
X124244587Y-102164192D01*
X124182720Y-102186600D01*
X124109987Y-102077748D01*
X124016826Y-101984587D01*
X124424192Y-101984587D01*
X125380000Y-102940395D01*
X126335808Y-101984587D01*
X126964192Y-101984587D01*
X127920000Y-102940395D01*
X128875808Y-101984587D01*
X128780044Y-101720186D01*
X128490429Y-101579296D01*
X128178892Y-101497616D01*
X127857405Y-101478282D01*
X127538325Y-101522039D01*
X127233912Y-101627205D01*
X127059956Y-101720186D01*
X126964192Y-101984587D01*
X126335808Y-101984587D01*
X126240044Y-101720186D01*
X125950429Y-101579296D01*
X125638892Y-101497616D01*
X125317405Y-101478282D01*
X124998325Y-101522039D01*
X124693912Y-101627205D01*
X124519956Y-101720186D01*
X124424192Y-101984587D01*
X124016826Y-101984587D01*
X123882252Y-101850013D01*
X123614463Y-101671082D01*
X123316912Y-101547832D01*
X123001033Y-101485000D01*
X122678967Y-101485000D01*
X122363088Y-101547832D01*
X122065537Y-101671082D01*
X121797748Y-101850013D01*
X121570013Y-102077748D01*
X121570000Y-102077767D01*
X121569987Y-102077748D01*
X121342252Y-101850013D01*
X121074463Y-101671082D01*
X120776912Y-101547832D01*
X120461033Y-101485000D01*
X120138967Y-101485000D01*
X119823088Y-101547832D01*
X119525537Y-101671082D01*
X119257748Y-101850013D01*
X119030013Y-102077748D01*
X118851082Y-102345537D01*
X118727832Y-102643088D01*
X118665000Y-102958967D01*
X118665000Y-103281033D01*
X118727832Y-103596912D01*
X118828523Y-103840000D01*
X117160000Y-103840000D01*
X117160000Y-100660000D01*
X121467581Y-100660000D01*
X121500000Y-100663193D01*
X121532419Y-100660000D01*
X121629383Y-100650450D01*
X121753793Y-100612710D01*
X121868450Y-100551425D01*
X121968948Y-100468948D01*
X122051425Y-100368450D01*
X122112710Y-100253793D01*
X122150450Y-100129383D01*
X122163193Y-100000000D01*
X122160000Y-99967581D01*
X122160000Y-98700000D01*
X130261928Y-98700000D01*
X130274188Y-98824482D01*
X130310498Y-98944180D01*
X130369463Y-99054494D01*
X130448815Y-99151185D01*
X130545506Y-99230537D01*
X130655820Y-99289502D01*
X130775518Y-99325812D01*
X130900000Y-99338072D01*
X131114250Y-99335000D01*
X131273000Y-99176250D01*
X131273000Y-98077000D01*
X131527000Y-98077000D01*
X131527000Y-99176250D01*
X131685750Y-99335000D01*
X131900000Y-99338072D01*
X132024482Y-99325812D01*
X132144180Y-99289502D01*
X132254494Y-99230537D01*
X132351185Y-99151185D01*
X132430537Y-99054494D01*
X132489502Y-98944180D01*
X132525812Y-98824482D01*
X132538072Y-98700000D01*
X132535000Y-98235750D01*
X132376250Y-98077000D01*
X131527000Y-98077000D01*
X131273000Y-98077000D01*
X130423750Y-98077000D01*
X130265000Y-98235750D01*
X130261928Y-98700000D01*
X122160000Y-98700000D01*
X122160000Y-97200000D01*
X130261928Y-97200000D01*
X130265000Y-97664250D01*
X130423750Y-97823000D01*
X131273000Y-97823000D01*
X131273000Y-96723750D01*
X131527000Y-96723750D01*
X131527000Y-97823000D01*
X132376250Y-97823000D01*
X132535000Y-97664250D01*
X132538072Y-97200000D01*
X132525812Y-97075518D01*
X132489502Y-96955820D01*
X132430537Y-96845506D01*
X132351185Y-96748815D01*
X132254494Y-96669463D01*
X132144180Y-96610498D01*
X132024482Y-96574188D01*
X131900000Y-96561928D01*
X131685750Y-96565000D01*
X131527000Y-96723750D01*
X131273000Y-96723750D01*
X131114250Y-96565000D01*
X130900000Y-96561928D01*
X130775518Y-96574188D01*
X130655820Y-96610498D01*
X130545506Y-96669463D01*
X130448815Y-96748815D01*
X130369463Y-96845506D01*
X130310498Y-96955820D01*
X130274188Y-97075518D01*
X130261928Y-97200000D01*
X122160000Y-97200000D01*
X122160000Y-91032419D01*
X122163193Y-91000000D01*
X122150450Y-90870617D01*
X122112710Y-90746207D01*
X122051425Y-90631550D01*
X121968948Y-90531052D01*
X121868450Y-90448575D01*
X121753793Y-90387290D01*
X121629383Y-90349550D01*
X121532419Y-90340000D01*
X121500000Y-90336807D01*
X121467581Y-90340000D01*
X117160000Y-90340000D01*
X117160000Y-87160000D01*
X118828523Y-87160000D01*
X118727832Y-87403088D01*
%TA.AperFunction,Conductor*%
D15*
G36*
X118727832Y-87403088D02*
G01*
X118665000Y-87718967D01*
X118665000Y-88041033D01*
X118727832Y-88356912D01*
X118851082Y-88654463D01*
X119030013Y-88922252D01*
X119257748Y-89149987D01*
X119525537Y-89328918D01*
X119823088Y-89452168D01*
X120138967Y-89515000D01*
X120461033Y-89515000D01*
X120776912Y-89452168D01*
X121074463Y-89328918D01*
X121342252Y-89149987D01*
X121476826Y-89015413D01*
X121884192Y-89015413D01*
X121979956Y-89279814D01*
X122269571Y-89420704D01*
X122581108Y-89502384D01*
X122902595Y-89521718D01*
X123221675Y-89477961D01*
X123526088Y-89372795D01*
X123700044Y-89279814D01*
X123795808Y-89015413D01*
X122840000Y-88059605D01*
X121884192Y-89015413D01*
X121476826Y-89015413D01*
X121569987Y-88922252D01*
X121642720Y-88813400D01*
X121704587Y-88835808D01*
X122660395Y-87880000D01*
X122646253Y-87865858D01*
X122825858Y-87686253D01*
X122840000Y-87700395D01*
X122854143Y-87686253D01*
X123033748Y-87865858D01*
X123019605Y-87880000D01*
X123975413Y-88835808D01*
X124037280Y-88813400D01*
X124110013Y-88922252D01*
X124337748Y-89149987D01*
X124605537Y-89328918D01*
X124903088Y-89452168D01*
X125218967Y-89515000D01*
X125541033Y-89515000D01*
X125856912Y-89452168D01*
X126154463Y-89328918D01*
X126422252Y-89149987D01*
X126649987Y-88922252D01*
X126650000Y-88922233D01*
X126650013Y-88922252D01*
X126877748Y-89149987D01*
X127031001Y-89252387D01*
X127031001Y-89376331D01*
X127026700Y-89420000D01*
X127043864Y-89594274D01*
X127094698Y-89761852D01*
X127177248Y-89916291D01*
X127288342Y-90051659D01*
X127322259Y-90079494D01*
X128840501Y-91597736D01*
X128868341Y-91631659D01*
X129003709Y-91742753D01*
X129158149Y-91825303D01*
X129224058Y-91845296D01*
X129325724Y-91876136D01*
X129358924Y-91879406D01*
X129456333Y-91889000D01*
X129456339Y-91889000D01*
X129499999Y-91893300D01*
X129543659Y-91889000D01*
X130415836Y-91889000D01*
X130369463Y-91945506D01*
X130310498Y-92055820D01*
X130274188Y-92175518D01*
X130261928Y-92300000D01*
X130261928Y-93800000D01*
X130274188Y-93924482D01*
X130310498Y-94044180D01*
X130369463Y-94154494D01*
X130448815Y-94251185D01*
X130545506Y-94330537D01*
X130655820Y-94389502D01*
X130775518Y-94425812D01*
X130900000Y-94438072D01*
X131900000Y-94438072D01*
X132024482Y-94425812D01*
X132144180Y-94389502D01*
X132254494Y-94330537D01*
X132351185Y-94251185D01*
X132430537Y-94154494D01*
X132489502Y-94044180D01*
X132525812Y-93924482D01*
X132538072Y-93800000D01*
X132538072Y-92300000D01*
X132525812Y-92175518D01*
X132489502Y-92055820D01*
X132430537Y-91945506D01*
X132384164Y-91889000D01*
X133615836Y-91889000D01*
X133569463Y-91945506D01*
X133510498Y-92055820D01*
X133474188Y-92175518D01*
X133461928Y-92300000D01*
X133461928Y-93800000D01*
X133474188Y-93924482D01*
X133510498Y-94044180D01*
X133569463Y-94154494D01*
X133648815Y-94251185D01*
X133745506Y-94330537D01*
X133855820Y-94389502D01*
X133975518Y-94425812D01*
X134100000Y-94438072D01*
X135100000Y-94438072D01*
X135224482Y-94425812D01*
X135344180Y-94389502D01*
X135454494Y-94330537D01*
X135551185Y-94251185D01*
X135630537Y-94154494D01*
X135636928Y-94142537D01*
X135636928Y-94800000D01*
X135653992Y-94973254D01*
X135704528Y-95139850D01*
X135786595Y-95293386D01*
X135897038Y-95427962D01*
X135903594Y-95433342D01*
X135823815Y-95498815D01*
X135744463Y-95595506D01*
X135685498Y-95705820D01*
X135649188Y-95825518D01*
X135636928Y-95950000D01*
X135640000Y-96251750D01*
X135798750Y-96410500D01*
X136873000Y-96410500D01*
X136873000Y-96390500D01*
X137127000Y-96390500D01*
X137127000Y-96410500D01*
X138201250Y-96410500D01*
X138360000Y-96251750D01*
X138363072Y-95950000D01*
X138350812Y-95825518D01*
X138314502Y-95705820D01*
X138255537Y-95595506D01*
X138176185Y-95498815D01*
X138096406Y-95433342D01*
X138102962Y-95427962D01*
X138213405Y-95293386D01*
X138295472Y-95139850D01*
X138346008Y-94973254D01*
X138363072Y-94800000D01*
X138363072Y-94125000D01*
X138346008Y-93951746D01*
X138295472Y-93785150D01*
X138213405Y-93631614D01*
X138102962Y-93497038D01*
X137968386Y-93386595D01*
X137877338Y-93337929D01*
X137876136Y-93325726D01*
X137876136Y-93325724D01*
X137825302Y-93158147D01*
X137822548Y-93152995D01*
X137742753Y-93003709D01*
X137631659Y-92868341D01*
X137597736Y-92840501D01*
X137209499Y-92452264D01*
X137181659Y-92418341D01*
X137046291Y-92307247D01*
X136891851Y-92224697D01*
X136724274Y-92173864D01*
X136593667Y-92161000D01*
X136593660Y-92161000D01*
X136550000Y-92156700D01*
X136506340Y-92161000D01*
X135721408Y-92161000D01*
X135689502Y-92055820D01*
X135630537Y-91945506D01*
X135551185Y-91848815D01*
X135489000Y-91797781D01*
X135489000Y-91643659D01*
X135493300Y-91599999D01*
X135489000Y-91556334D01*
X135489000Y-91556333D01*
X135476136Y-91425726D01*
X135476136Y-91425724D01*
X135425302Y-91258147D01*
X135415201Y-91239250D01*
X135342753Y-91103709D01*
X135231659Y-90968341D01*
X135197742Y-90940506D01*
X134659498Y-90402263D01*
X134631659Y-90368341D01*
X134496291Y-90257247D01*
X134341851Y-90174697D01*
X134174274Y-90123864D01*
X134043667Y-90111000D01*
X134043660Y-90111000D01*
X134000000Y-90106700D01*
X133956340Y-90111000D01*
X129868235Y-90111000D01*
X128929264Y-89172029D01*
X128962252Y-89149987D01*
X129189987Y-88922252D01*
X129190000Y-88922233D01*
X129190013Y-88922252D01*
X129417748Y-89149987D01*
X129685537Y-89328918D01*
X129983088Y-89452168D01*
X130298967Y-89515000D01*
X130621033Y-89515000D01*
X130936912Y-89452168D01*
X131234463Y-89328918D01*
X131502252Y-89149987D01*
X131729987Y-88922252D01*
X131730000Y-88922233D01*
X131730013Y-88922252D01*
X131957748Y-89149987D01*
X132225537Y-89328918D01*
X132523088Y-89452168D01*
X132838967Y-89515000D01*
X133161033Y-89515000D01*
X133476912Y-89452168D01*
X133774463Y-89328918D01*
X134042252Y-89149987D01*
X134269987Y-88922252D01*
X134270000Y-88922233D01*
X134270013Y-88922252D01*
X134497748Y-89149987D01*
X134765537Y-89328918D01*
X135063088Y-89452168D01*
X135378967Y-89515000D01*
X135701033Y-89515000D01*
X136016912Y-89452168D01*
X136314463Y-89328918D01*
X136582252Y-89149987D01*
X136809987Y-88922252D01*
X136810000Y-88922233D01*
X136810013Y-88922252D01*
X137037748Y-89149987D01*
X137305537Y-89328918D01*
X137603088Y-89452168D01*
X137918967Y-89515000D01*
X138241033Y-89515000D01*
X138556912Y-89452168D01*
X138854463Y-89328918D01*
X139122252Y-89149987D01*
X139349987Y-88922252D01*
X139350000Y-88922233D01*
X139350013Y-88922252D01*
X139577748Y-89149987D01*
X139845537Y-89328918D01*
X140143088Y-89452168D01*
X140458967Y-89515000D01*
X140781033Y-89515000D01*
X141096912Y-89452168D01*
X141394463Y-89328918D01*
X141662252Y-89149987D01*
X141889987Y-88922252D01*
X141890000Y-88922233D01*
X141890013Y-88922252D01*
X142117748Y-89149987D01*
X142385537Y-89328918D01*
X142683088Y-89452168D01*
X142998967Y-89515000D01*
X143321033Y-89515000D01*
X143636912Y-89452168D01*
X143934463Y-89328918D01*
X144202252Y-89149987D01*
X144429987Y-88922252D01*
X144430000Y-88922233D01*
X144430013Y-88922252D01*
X144657748Y-89149987D01*
X144925537Y-89328918D01*
X145223088Y-89452168D01*
X145538967Y-89515000D01*
X145861033Y-89515000D01*
X146176912Y-89452168D01*
X146474463Y-89328918D01*
X146742252Y-89149987D01*
X146969987Y-88922252D01*
X146970000Y-88922233D01*
X146970013Y-88922252D01*
X147197748Y-89149987D01*
X147465537Y-89328918D01*
X147763088Y-89452168D01*
X148078967Y-89515000D01*
X148401033Y-89515000D01*
X148716912Y-89452168D01*
X148840000Y-89401183D01*
X148840001Y-101598817D01*
X148716912Y-101547832D01*
X148401033Y-101485000D01*
X148078967Y-101485000D01*
X147763088Y-101547832D01*
X147465537Y-101671082D01*
X147197748Y-101850013D01*
X146970013Y-102077748D01*
X146970000Y-102077767D01*
X146969987Y-102077748D01*
X146742252Y-101850013D01*
X146474463Y-101671082D01*
X146176912Y-101547832D01*
X145861033Y-101485000D01*
X145538967Y-101485000D01*
X145223088Y-101547832D01*
X144925537Y-101671082D01*
X144657748Y-101850013D01*
X144430013Y-102077748D01*
X144430000Y-102077767D01*
X144429987Y-102077748D01*
X144202252Y-101850013D01*
X143934463Y-101671082D01*
X143636912Y-101547832D01*
X143321033Y-101485000D01*
X142998967Y-101485000D01*
X142683088Y-101547832D01*
X142385537Y-101671082D01*
X142117748Y-101850013D01*
X141890013Y-102077748D01*
X141890000Y-102077767D01*
X141889987Y-102077748D01*
X141662252Y-101850013D01*
X141509000Y-101747613D01*
X141509000Y-100877337D01*
X141524482Y-100875812D01*
X141644180Y-100839502D01*
X141754494Y-100780537D01*
X141851185Y-100701185D01*
X141930537Y-100604494D01*
X141989502Y-100494180D01*
X142025812Y-100374482D01*
X142038072Y-100250000D01*
X143961928Y-100250000D01*
X143974188Y-100374482D01*
X144010498Y-100494180D01*
X144069463Y-100604494D01*
X144148815Y-100701185D01*
X144245506Y-100780537D01*
X144355820Y-100839502D01*
X144475518Y-100875812D01*
X144600000Y-100888072D01*
X144964250Y-100885000D01*
X145123000Y-100726250D01*
X145123000Y-99602000D01*
X145377000Y-99602000D01*
X145377000Y-100726250D01*
X145535750Y-100885000D01*
X145900000Y-100888072D01*
X146024482Y-100875812D01*
X146144180Y-100839502D01*
X146254494Y-100780537D01*
X146351185Y-100701185D01*
X146430537Y-100604494D01*
X146489502Y-100494180D01*
X146525812Y-100374482D01*
X146538072Y-100250000D01*
X146535000Y-99760750D01*
X146376250Y-99602000D01*
X145377000Y-99602000D01*
X145123000Y-99602000D01*
X144123750Y-99602000D01*
X143965000Y-99760750D01*
X143961928Y-100250000D01*
X142038072Y-100250000D01*
X142038072Y-98700000D01*
X143961928Y-98700000D01*
X143965000Y-99189250D01*
X144123750Y-99348000D01*
X145123000Y-99348000D01*
X145123000Y-98223750D01*
X145377000Y-98223750D01*
X145377000Y-99348000D01*
X146376250Y-99348000D01*
X146535000Y-99189250D01*
X146538072Y-98700000D01*
X146525812Y-98575518D01*
X146489502Y-98455820D01*
X146430537Y-98345506D01*
X146351185Y-98248815D01*
X146254494Y-98169463D01*
X146144180Y-98110498D01*
X146024482Y-98074188D01*
X145900000Y-98061928D01*
X145535750Y-98065000D01*
X145377000Y-98223750D01*
X145123000Y-98223750D01*
X144964250Y-98065000D01*
X144600000Y-98061928D01*
X144475518Y-98074188D01*
X144355820Y-98110498D01*
X144245506Y-98169463D01*
X144148815Y-98248815D01*
X144069463Y-98345506D01*
X144010498Y-98455820D01*
X143974188Y-98575518D01*
X143961928Y-98700000D01*
X142038072Y-98700000D01*
X142025812Y-98575518D01*
X141989502Y-98455820D01*
X141930537Y-98345506D01*
X141851185Y-98248815D01*
X141754494Y-98169463D01*
X141644180Y-98110498D01*
X141639000Y-98108927D01*
X141639000Y-92891073D01*
X141644180Y-92889502D01*
X141754494Y-92830537D01*
X141851185Y-92751185D01*
X141930537Y-92654494D01*
X141989502Y-92544180D01*
X142025812Y-92424482D01*
X142038072Y-92300000D01*
X143961928Y-92300000D01*
X143974188Y-92424482D01*
X144010498Y-92544180D01*
X144069463Y-92654494D01*
X144148815Y-92751185D01*
X144245506Y-92830537D01*
X144355820Y-92889502D01*
X144475518Y-92925812D01*
X144600000Y-92938072D01*
X144964250Y-92935000D01*
X145123000Y-92776250D01*
X145123000Y-91652000D01*
X145377000Y-91652000D01*
X145377000Y-92776250D01*
X145535750Y-92935000D01*
X145900000Y-92938072D01*
X146024482Y-92925812D01*
X146144180Y-92889502D01*
X146254494Y-92830537D01*
X146351185Y-92751185D01*
X146430537Y-92654494D01*
X146489502Y-92544180D01*
X146525812Y-92424482D01*
X146538072Y-92300000D01*
X146535000Y-91810750D01*
X146376250Y-91652000D01*
X145377000Y-91652000D01*
X145123000Y-91652000D01*
X144123750Y-91652000D01*
X143965000Y-91810750D01*
X143961928Y-92300000D01*
X142038072Y-92300000D01*
X142038072Y-90750000D01*
X143961928Y-90750000D01*
X143965000Y-91239250D01*
X144123750Y-91398000D01*
X145123000Y-91398000D01*
X145123000Y-90273750D01*
X145377000Y-90273750D01*
X145377000Y-91398000D01*
X146376250Y-91398000D01*
X146535000Y-91239250D01*
X146538072Y-90750000D01*
X146525812Y-90625518D01*
X146489502Y-90505820D01*
X146430537Y-90395506D01*
X146351185Y-90298815D01*
X146254494Y-90219463D01*
X146144180Y-90160498D01*
X146024482Y-90124188D01*
X145900000Y-90111928D01*
X145535750Y-90115000D01*
X145377000Y-90273750D01*
X145123000Y-90273750D01*
X144964250Y-90115000D01*
X144600000Y-90111928D01*
X144475518Y-90124188D01*
X144355820Y-90160498D01*
X144245506Y-90219463D01*
X144148815Y-90298815D01*
X144069463Y-90395506D01*
X144010498Y-90505820D01*
X143974188Y-90625518D01*
X143961928Y-90750000D01*
X142038072Y-90750000D01*
X142025812Y-90625518D01*
X141989502Y-90505820D01*
X141930537Y-90395506D01*
X141851185Y-90298815D01*
X141754494Y-90219463D01*
X141644180Y-90160498D01*
X141524482Y-90124188D01*
X141400000Y-90111928D01*
X140100000Y-90111928D01*
X139975518Y-90124188D01*
X139855820Y-90160498D01*
X139745506Y-90219463D01*
X139648815Y-90298815D01*
X139569463Y-90395506D01*
X139510498Y-90505820D01*
X139474188Y-90625518D01*
X139461928Y-90750000D01*
X139461928Y-92300000D01*
X139474188Y-92424482D01*
X139510498Y-92544180D01*
X139569463Y-92654494D01*
X139648815Y-92751185D01*
X139745506Y-92830537D01*
X139855820Y-92889502D01*
X139861000Y-92891073D01*
X139861001Y-98108926D01*
X139855820Y-98110498D01*
X139745506Y-98169463D01*
X139648815Y-98248815D01*
X139569463Y-98345506D01*
X139510498Y-98455820D01*
X139474188Y-98575518D01*
X139461928Y-98700000D01*
X139461928Y-100250000D01*
X139474188Y-100374482D01*
X139510498Y-100494180D01*
X139569463Y-100604494D01*
X139648815Y-100701185D01*
X139731001Y-100768633D01*
X139731000Y-101747613D01*
X139577748Y-101850013D01*
X139350013Y-102077748D01*
X139350000Y-102077767D01*
X139349987Y-102077748D01*
X139122252Y-101850013D01*
X138854463Y-101671082D01*
X138556912Y-101547832D01*
X138241033Y-101485000D01*
X137918967Y-101485000D01*
X137603088Y-101547832D01*
X137305537Y-101671082D01*
X137037748Y-101850013D01*
X136810013Y-102077748D01*
X136810000Y-102077767D01*
X136809987Y-102077748D01*
X136582252Y-101850013D01*
X136429000Y-101747613D01*
X136429000Y-101083660D01*
X136433300Y-101040000D01*
X136429000Y-100996340D01*
X136429000Y-100996333D01*
X136416136Y-100865726D01*
X136409168Y-100842753D01*
X136365302Y-100698147D01*
X136315243Y-100604494D01*
X136282753Y-100543709D01*
X136171659Y-100408341D01*
X136137743Y-100380507D01*
X135489000Y-99731765D01*
X135489000Y-99202219D01*
X135551185Y-99151185D01*
X135630537Y-99054494D01*
X135689502Y-98944180D01*
X135725812Y-98824482D01*
X135738072Y-98700000D01*
X135738072Y-97467537D01*
X135744463Y-97479494D01*
X135823815Y-97576185D01*
X135920506Y-97655537D01*
X136030820Y-97714502D01*
X136150518Y-97750812D01*
X136275000Y-97763072D01*
X136714250Y-97760000D01*
X136873000Y-97601250D01*
X136873000Y-96664500D01*
X137127000Y-96664500D01*
X137127000Y-97601250D01*
X137285750Y-97760000D01*
X137725000Y-97763072D01*
X137849482Y-97750812D01*
X137969180Y-97714502D01*
X138079494Y-97655537D01*
X138176185Y-97576185D01*
X138255537Y-97479494D01*
X138314502Y-97369180D01*
X138350812Y-97249482D01*
X138363072Y-97125000D01*
X138360000Y-96823250D01*
X138201250Y-96664500D01*
X137127000Y-96664500D01*
X136873000Y-96664500D01*
X135798750Y-96664500D01*
X135640000Y-96823250D01*
X135639601Y-96862463D01*
X135630537Y-96845506D01*
X135551185Y-96748815D01*
X135454494Y-96669463D01*
X135344180Y-96610498D01*
X135224482Y-96574188D01*
X135100000Y-96561928D01*
X134100000Y-96561928D01*
X133975518Y-96574188D01*
X133855820Y-96610498D01*
X133745506Y-96669463D01*
X133648815Y-96748815D01*
X133569463Y-96845506D01*
X133510498Y-96955820D01*
X133474188Y-97075518D01*
X133461928Y-97200000D01*
X133461928Y-98700000D01*
X133474188Y-98824482D01*
X133510498Y-98944180D01*
X133569463Y-99054494D01*
X133648815Y-99151185D01*
X133711001Y-99202219D01*
X133711001Y-100056330D01*
X133706700Y-100100000D01*
X133723864Y-100274274D01*
X133774698Y-100441852D01*
X133857248Y-100596291D01*
X133968342Y-100731659D01*
X134002259Y-100759494D01*
X134651000Y-101408236D01*
X134651000Y-101747613D01*
X134497748Y-101850013D01*
X134270013Y-102077748D01*
X134270000Y-102077767D01*
X134269987Y-102077748D01*
X134042252Y-101850013D01*
X133774463Y-101671082D01*
X133476912Y-101547832D01*
X133161033Y-101485000D01*
X132838967Y-101485000D01*
X132523088Y-101547832D01*
X132225537Y-101671082D01*
X131957748Y-101850013D01*
X131730013Y-102077748D01*
X131730000Y-102077767D01*
X131729987Y-102077748D01*
X131502252Y-101850013D01*
X131234463Y-101671082D01*
X130936912Y-101547832D01*
X130621033Y-101485000D01*
X130298967Y-101485000D01*
X129983088Y-101547832D01*
X129685537Y-101671082D01*
X129417748Y-101850013D01*
X129190013Y-102077748D01*
X129117280Y-102186600D01*
X129055413Y-102164192D01*
X128099605Y-103120000D01*
X128113748Y-103134143D01*
X127934143Y-103313748D01*
X127920000Y-103299605D01*
X127905858Y-103313748D01*
X127726253Y-103134143D01*
X127740395Y-103120000D01*
X126784587Y-102164192D01*
X126650000Y-102212938D01*
X126515413Y-102164192D01*
X125559605Y-103120000D01*
X125573748Y-103134143D01*
X125394143Y-103313748D01*
X125380000Y-103299605D01*
X125365858Y-103313748D01*
X125186253Y-103134143D01*
X125200395Y-103120000D01*
X124244587Y-102164192D01*
X124182720Y-102186600D01*
X124109987Y-102077748D01*
X124016826Y-101984587D01*
X124424192Y-101984587D01*
X125380000Y-102940395D01*
X126335808Y-101984587D01*
X126964192Y-101984587D01*
X127920000Y-102940395D01*
X128875808Y-101984587D01*
X128780044Y-101720186D01*
X128490429Y-101579296D01*
X128178892Y-101497616D01*
X127857405Y-101478282D01*
X127538325Y-101522039D01*
X127233912Y-101627205D01*
X127059956Y-101720186D01*
X126964192Y-101984587D01*
X126335808Y-101984587D01*
X126240044Y-101720186D01*
X125950429Y-101579296D01*
X125638892Y-101497616D01*
X125317405Y-101478282D01*
X124998325Y-101522039D01*
X124693912Y-101627205D01*
X124519956Y-101720186D01*
X124424192Y-101984587D01*
X124016826Y-101984587D01*
X123882252Y-101850013D01*
X123614463Y-101671082D01*
X123316912Y-101547832D01*
X123001033Y-101485000D01*
X122678967Y-101485000D01*
X122363088Y-101547832D01*
X122065537Y-101671082D01*
X121797748Y-101850013D01*
X121570013Y-102077748D01*
X121570000Y-102077767D01*
X121569987Y-102077748D01*
X121342252Y-101850013D01*
X121074463Y-101671082D01*
X120776912Y-101547832D01*
X120461033Y-101485000D01*
X120138967Y-101485000D01*
X119823088Y-101547832D01*
X119525537Y-101671082D01*
X119257748Y-101850013D01*
X119030013Y-102077748D01*
X118851082Y-102345537D01*
X118727832Y-102643088D01*
X118665000Y-102958967D01*
X118665000Y-103281033D01*
X118727832Y-103596912D01*
X118828523Y-103840000D01*
X117160000Y-103840000D01*
X117160000Y-100660000D01*
X121467581Y-100660000D01*
X121500000Y-100663193D01*
X121532419Y-100660000D01*
X121629383Y-100650450D01*
X121753793Y-100612710D01*
X121868450Y-100551425D01*
X121968948Y-100468948D01*
X122051425Y-100368450D01*
X122112710Y-100253793D01*
X122150450Y-100129383D01*
X122163193Y-100000000D01*
X122160000Y-99967581D01*
X122160000Y-98700000D01*
X130261928Y-98700000D01*
X130274188Y-98824482D01*
X130310498Y-98944180D01*
X130369463Y-99054494D01*
X130448815Y-99151185D01*
X130545506Y-99230537D01*
X130655820Y-99289502D01*
X130775518Y-99325812D01*
X130900000Y-99338072D01*
X131114250Y-99335000D01*
X131273000Y-99176250D01*
X131273000Y-98077000D01*
X131527000Y-98077000D01*
X131527000Y-99176250D01*
X131685750Y-99335000D01*
X131900000Y-99338072D01*
X132024482Y-99325812D01*
X132144180Y-99289502D01*
X132254494Y-99230537D01*
X132351185Y-99151185D01*
X132430537Y-99054494D01*
X132489502Y-98944180D01*
X132525812Y-98824482D01*
X132538072Y-98700000D01*
X132535000Y-98235750D01*
X132376250Y-98077000D01*
X131527000Y-98077000D01*
X131273000Y-98077000D01*
X130423750Y-98077000D01*
X130265000Y-98235750D01*
X130261928Y-98700000D01*
X122160000Y-98700000D01*
X122160000Y-97200000D01*
X130261928Y-97200000D01*
X130265000Y-97664250D01*
X130423750Y-97823000D01*
X131273000Y-97823000D01*
X131273000Y-96723750D01*
X131527000Y-96723750D01*
X131527000Y-97823000D01*
X132376250Y-97823000D01*
X132535000Y-97664250D01*
X132538072Y-97200000D01*
X132525812Y-97075518D01*
X132489502Y-96955820D01*
X132430537Y-96845506D01*
X132351185Y-96748815D01*
X132254494Y-96669463D01*
X132144180Y-96610498D01*
X132024482Y-96574188D01*
X131900000Y-96561928D01*
X131685750Y-96565000D01*
X131527000Y-96723750D01*
X131273000Y-96723750D01*
X131114250Y-96565000D01*
X130900000Y-96561928D01*
X130775518Y-96574188D01*
X130655820Y-96610498D01*
X130545506Y-96669463D01*
X130448815Y-96748815D01*
X130369463Y-96845506D01*
X130310498Y-96955820D01*
X130274188Y-97075518D01*
X130261928Y-97200000D01*
X122160000Y-97200000D01*
X122160000Y-91032419D01*
X122163193Y-91000000D01*
X122150450Y-90870617D01*
X122112710Y-90746207D01*
X122051425Y-90631550D01*
X121968948Y-90531052D01*
X121868450Y-90448575D01*
X121753793Y-90387290D01*
X121629383Y-90349550D01*
X121532419Y-90340000D01*
X121500000Y-90336807D01*
X121467581Y-90340000D01*
X117160000Y-90340000D01*
X117160000Y-87160000D01*
X118828523Y-87160000D01*
X118727832Y-87403088D01*
G37*
%TD.AperFunction*%
%TD*%
M02*
